<svg width="52" height="53" viewBox="0 0 52 53" fill="none" xmlns="http://www.w3.org/2000/svg">
<rect y="0.277954" width="51.4807" height="52.5761" rx="13" fill="#006380"/>
<path d="M18.0729 28.8937C17.748 28.8937 17.4303 28.99 17.1601 29.1706C16.8899 29.3511 16.6794 29.6077 16.555 29.9079C16.4306 30.2082 16.3981 30.5385 16.4615 30.8572C16.5249 31.1759 16.6814 31.4687 16.9112 31.6985C17.1409 31.9282 17.4337 32.0847 17.7524 32.1481C18.0711 32.2115 18.4015 32.179 18.7017 32.0546C19.0019 31.9303 19.2585 31.7197 19.439 31.4495C19.6196 31.1793 19.7159 30.8616 19.7159 30.5367C19.7159 30.1009 19.5428 29.683 19.2347 29.3749C18.9266 29.0668 18.5087 28.8937 18.0729 28.8937ZM18.0729 31.3582C17.9105 31.3582 17.7516 31.31 17.6165 31.2197C17.4814 31.1295 17.3761 31.0012 17.314 30.8511C17.2518 30.7009 17.2355 30.5358 17.2672 30.3764C17.2989 30.2171 17.3772 30.0707 17.492 29.9558C17.6069 29.8409 17.7533 29.7627 17.9127 29.731C18.072 29.6993 18.2372 29.7155 18.3873 29.7777C18.5374 29.8399 18.6657 29.9452 18.756 30.0803C18.8463 30.2154 18.8944 30.3742 18.8944 30.5367C18.8944 30.7546 18.8079 30.9635 18.6538 31.1176C18.4998 31.2716 18.2908 31.3582 18.0729 31.3582Z" fill="white"/>
<path d="M34.503 28.8937C34.178 28.8937 33.8604 28.99 33.5902 29.1706C33.32 29.3511 33.1094 29.6077 32.9851 29.9079C32.8607 30.2082 32.8282 30.5385 32.8916 30.8572C32.955 31.1759 33.1114 31.4687 33.3412 31.6985C33.571 31.9282 33.8637 32.0847 34.1825 32.1481C34.5012 32.2115 34.8315 32.179 35.1317 32.0546C35.432 31.9303 35.6886 31.7197 35.8691 31.4495C36.0496 31.1793 36.146 30.8616 36.146 30.5367C36.146 30.1009 35.9729 29.683 35.6648 29.3749C35.3566 29.0668 34.9387 28.8937 34.503 28.8937ZM34.503 31.3582C34.3405 31.3582 34.1817 31.31 34.0466 31.2197C33.9115 31.1295 33.8062 31.0012 33.744 30.8511C33.6818 30.7009 33.6656 30.5358 33.6973 30.3764C33.729 30.2171 33.8072 30.0707 33.9221 29.9558C34.037 29.8409 34.1834 29.7627 34.3427 29.731C34.5021 29.6993 34.6672 29.7155 34.8174 29.7777C34.9675 29.8399 35.0958 29.9452 35.186 30.0803C35.2763 30.2154 35.3245 30.3742 35.3245 30.5367C35.3245 30.7546 35.2379 30.9635 35.0839 31.1176C34.9298 31.2716 34.7209 31.3582 34.503 31.3582Z" fill="white"/>
<path d="M22.5912 30.9476H29.9847V31.7691H22.5912V30.9476Z" fill="white"/>
<path d="M22.5912 29.3046H29.9847V30.1261H22.5912V29.3046Z" fill="white"/>
<path d="M25.0557 23.1432H27.5202V23.9647H25.0557V23.1432Z" fill="white"/>
<path d="M38.6105 26.84V26.0185C38.6096 25.6919 38.4794 25.3791 38.2486 25.1482C38.0177 24.9173 37.7048 24.7872 37.3783 24.7862H35.7517L34.9015 21.8042L34.6468 20.7896C34.58 20.5232 34.4261 20.2868 34.2095 20.1179C33.993 19.9489 33.7262 19.8572 33.4515 19.8572H29.9848V18.2142C29.9841 17.9965 29.8974 17.788 29.7435 17.634C29.5895 17.4801 29.381 17.3934 29.1633 17.3927H23.4128C23.1951 17.3934 22.9865 17.4801 22.8326 17.634C22.6787 17.788 22.5919 17.9965 22.5913 18.2142V19.8572H19.1245C18.8499 19.8572 18.5831 19.9489 18.3666 20.1179C18.15 20.2868 17.9961 20.5232 17.9293 20.7896L17.6787 21.8001L16.8243 24.7862H15.1978C14.8713 24.7872 14.5584 24.9173 14.3275 25.1482C14.0966 25.3791 13.9665 25.6919 13.9655 26.0185V26.84C13.9662 27.048 14.0197 27.2526 14.121 27.4343C14.2223 27.6161 14.3681 27.7691 14.5447 27.8792C14.1734 28.2607 13.9656 28.7721 13.9655 29.3045V34.2335C13.9661 34.4058 14.003 34.5761 14.0737 34.7332C14.1445 34.8903 14.2476 35.0307 14.3763 35.1453V36.698C14.3772 37.0245 14.5074 37.3373 14.7383 37.5682C14.9691 37.7991 15.282 37.9293 15.6085 37.9302H18.8945C19.221 37.9293 19.5339 37.7991 19.7648 37.5682C19.9957 37.3373 20.1258 37.0245 20.1268 36.698V35.4657H32.4493V36.698C32.4503 37.0245 32.5804 37.3373 32.8113 37.5682C33.0422 37.7991 33.355 37.9293 33.6815 37.9302H36.9675C37.2941 37.9293 37.6069 37.7991 37.8378 37.5682C38.0687 37.3373 38.1988 37.0245 38.1998 36.698V35.1453C38.3285 35.0307 38.4316 34.8903 38.5023 34.7332C38.5731 34.5761 38.61 34.4058 38.6105 34.2335V29.3045C38.6105 28.7721 38.4027 28.2607 38.0314 27.8792C38.208 27.7691 38.3538 27.6161 38.4551 27.4343C38.5564 27.2526 38.6099 27.048 38.6105 26.84ZM23.4128 18.2142H29.1633V19.8572H23.4128V18.2142ZM18.7261 20.9909C18.7481 20.9018 18.7993 20.8227 18.8715 20.7661C18.9437 20.7096 19.0328 20.6788 19.1245 20.6787H33.4515C33.5433 20.6788 33.6323 20.7096 33.7045 20.7661C33.7767 20.8227 33.8279 20.9018 33.8499 20.9909L33.9773 21.5002H18.5988L18.7261 20.9909ZM18.3811 22.3217H34.195L35.5997 27.2507H23.7866C23.69 26.6767 23.3932 26.1555 22.9488 25.7795C22.5044 25.4036 21.9411 25.1974 21.359 25.1974C20.7769 25.1974 20.2137 25.4036 19.7693 25.7795C19.3249 26.1555 19.028 26.6767 18.9315 27.2507H16.9763L18.3811 22.3217ZM22.9445 27.2507H19.7735C19.8632 26.8983 20.0678 26.5857 20.3549 26.3625C20.642 26.1393 20.9953 26.0181 21.359 26.0181C21.7227 26.0181 22.076 26.1393 22.3631 26.3625C22.6503 26.5857 22.8548 26.8983 22.9445 27.2507ZM14.787 26.0185C14.787 25.9095 14.8303 25.805 14.9073 25.728C14.9844 25.651 15.0888 25.6077 15.1978 25.6077H16.5902L16.122 27.2507H15.1978C15.0888 27.2507 14.9844 27.2074 14.9073 27.1304C14.8303 27.0534 14.787 26.9489 14.787 26.84V26.0185ZM19.3053 36.698C19.3053 36.8069 19.262 36.9114 19.185 36.9884C19.1079 37.0654 19.0035 37.1087 18.8945 37.1087H15.6085C15.4996 37.1087 15.3951 37.0654 15.3181 36.9884C15.241 36.9114 15.1978 36.8069 15.1978 36.698V35.4657H19.3053V36.698ZM37.3783 36.698C37.3783 36.8069 37.335 36.9114 37.258 36.9884C37.181 37.0654 37.0765 37.1087 36.9675 37.1087H33.6815C33.5726 37.1087 33.4681 37.0654 33.3911 36.9884C33.3141 36.9114 33.2708 36.8069 33.2708 36.698V35.4657H37.3783V36.698ZM37.789 34.2335C37.789 34.3424 37.7458 34.4469 37.6687 34.5239C37.5917 34.6009 37.4872 34.6442 37.3783 34.6442H15.1978C15.0888 34.6442 14.9844 34.6009 14.9073 34.5239C14.8303 34.4469 14.787 34.3424 14.787 34.2335V33.8227H37.789V34.2335ZM37.789 33.0012H14.787V29.3045C14.788 28.978 14.9181 28.6651 15.149 28.4342C15.3799 28.2033 15.6928 28.0732 16.0193 28.0722H36.5568C36.8833 28.0732 37.1962 28.2033 37.427 28.4342C37.6579 28.6651 37.7881 28.978 37.789 29.3045V33.0012ZM37.789 26.84C37.789 26.9489 37.7458 27.0534 37.6687 27.1304C37.5917 27.2074 37.4872 27.2507 37.3783 27.2507H36.4541L35.9858 25.6077H37.3783C37.4872 25.6077 37.5917 25.651 37.6687 25.728C37.7458 25.805 37.789 25.9095 37.789 26.0185V26.84Z" fill="white"/>
</svg>
