<svg width="18" height="14" viewBox="0 0 18 14" fill="none" xmlns="http://www.w3.org/2000/svg">
<path d="M15.2378 1.24689C14.0905 0.718347 12.8602 0.328944 11.5739 0.105916C11.5505 0.101612 11.5271 0.112369 11.515 0.133883C11.3568 0.416431 11.1815 0.785038 11.0588 1.07476C9.6753 0.866798 8.29889 0.866798 6.94374 1.07476C6.82099 0.778598 6.63936 0.416431 6.48043 0.133883C6.46836 0.113086 6.44496 0.102329 6.42154 0.105916C5.13593 0.328231 3.90567 0.717635 2.7577 1.24689C2.74776 1.25119 2.73924 1.25837 2.73359 1.26768C0.400044 4.76804 -0.239213 8.18236 0.0743851 11.5543C0.075804 11.5708 0.0850274 11.5866 0.0977985 11.5967C1.63741 12.7319 3.12878 13.4211 4.59246 13.8779C4.61588 13.885 4.6407 13.8764 4.65561 13.8571C5.00184 13.3823 5.31048 12.8818 5.57511 12.3554C5.59072 12.3246 5.57582 12.288 5.5439 12.2758C5.05435 12.0893 4.5882 11.862 4.1398 11.6038C4.10433 11.583 4.10149 11.5321 4.13412 11.5077C4.22848 11.4367 4.32286 11.3629 4.41297 11.2883C4.42927 11.2747 4.45198 11.2718 4.47115 11.2804C7.41696 12.6308 10.6062 12.6308 13.5172 11.2804C13.5364 11.2711 13.5591 11.2739 13.5761 11.2876C13.6662 11.3621 13.7606 11.4367 13.8557 11.5077C13.8883 11.5321 13.8862 11.583 13.8507 11.6038C13.4023 11.867 12.9361 12.0893 12.4459 12.2751C12.414 12.2873 12.3998 12.3246 12.4154 12.3554C12.6857 12.881 12.9943 13.3816 13.3342 13.8564C13.3484 13.8764 13.3739 13.885 13.3973 13.8779C14.8681 13.4211 16.3595 12.7319 17.8991 11.5967C17.9126 11.5866 17.9211 11.5716 17.9225 11.5551C18.2978 7.65667 17.2939 4.27035 15.2612 1.26839C15.2562 1.25837 15.2477 1.25119 15.2378 1.24689ZM6.01502 9.50116C5.12812 9.50116 4.39735 8.68363 4.39735 7.67963C4.39735 6.67563 5.11395 5.8581 6.01502 5.8581C6.92315 5.8581 7.64686 6.68281 7.63266 7.67963C7.63266 8.68363 6.91606 9.50116 6.01502 9.50116ZM11.9961 9.50116C11.1092 9.50116 10.3784 8.68363 10.3784 7.67963C10.3784 6.67563 11.095 5.8581 11.9961 5.8581C12.9042 5.8581 13.6279 6.68281 13.6137 7.67963C13.6137 8.68363 12.9042 9.50116 11.9961 9.50116Z" fill="#212832"/>
</svg>
