<svg width="20" height="4" viewBox="0 0 20 4" fill="none" xmlns="http://www.w3.org/2000/svg">
<path d="M2.5 0.125C1.46447 0.125 0.625 0.964466 0.625 2C0.625 3.03553 1.46447 3.875 2.5 3.875C3.53553 3.875 4.375 3.03553 4.375 2C4.375 0.964466 3.53553 0.125 2.5 0.125Z" fill="black"/>
<path d="M8.125 2C8.125 0.964466 8.96447 0.125 10 0.125C11.0355 0.125 11.875 0.964466 11.875 2C11.875 3.03553 11.0355 3.875 10 3.875C8.96447 3.875 8.125 3.03553 8.125 2Z" fill="black"/>
<path d="M15.625 2C15.625 0.964466 16.4645 0.125 17.5 0.125C18.5355 0.125 19.375 0.964466 19.375 2C19.375 3.03553 18.5355 3.875 17.5 3.875C16.4645 3.875 15.625 3.03553 15.625 2Z" fill="black"/>
</svg>
