<svg width="52" height="54" viewBox="0 0 52 54" fill="none" xmlns="http://www.w3.org/2000/svg">
<rect y="0.600464" width="51.4807" height="52.5761" rx="13" fill="#F15A2B"/>
<path d="M35.9471 35.573C35.454 35.5831 34.9697 35.442 34.5591 35.1687C34.2535 34.9691 33.8964 34.8627 33.5314 34.8627C33.1664 34.8627 32.8093 34.9691 32.5037 35.1687C32.089 35.4327 31.6075 35.573 31.1159 35.573C30.6243 35.573 30.1429 35.4327 29.7282 35.1687C29.4226 34.9689 29.0654 34.8624 28.7003 34.8624C28.3351 34.8624 27.9779 34.9689 27.6724 35.1687C27.2577 35.4327 26.7762 35.573 26.2846 35.573C25.793 35.573 25.3116 35.4327 24.8968 35.1687C24.5915 34.969 24.2345 34.8626 23.8697 34.8626C23.5048 34.8626 23.1478 34.969 22.8425 35.1687C22.4665 35.4186 22.0277 35.5575 21.5764 35.5694L21.5515 34.8589C21.8849 34.851 22.2086 34.7456 22.4826 34.5556C22.8972 34.2916 23.3785 34.1514 23.87 34.1514C24.3615 34.1514 24.8428 34.2916 25.2574 34.5556C25.563 34.7553 25.9201 34.8617 26.2851 34.8617C26.6502 34.8617 27.0073 34.7553 27.3129 34.5556C27.7276 34.2914 28.2092 34.151 28.701 34.151C29.1928 34.151 29.6743 34.2914 30.0891 34.5556C30.3946 34.7553 30.7518 34.8617 31.1168 34.8617C31.4819 34.8617 31.839 34.7553 32.1445 34.5556C32.5593 34.2916 33.0407 34.1514 33.5323 34.1514C34.0239 34.1514 34.5053 34.2916 34.92 34.5556C35.2263 34.7558 35.5843 34.8624 35.9503 34.8624C36.3162 34.8624 36.6742 34.7558 36.9805 34.5556C37.3905 34.2831 37.874 34.1423 38.3663 34.152V34.8625C37.9998 34.8525 37.6396 34.9596 37.3382 35.1684C36.9266 35.442 36.4412 35.5832 35.9471 35.573Z" fill="white"/>
<path d="M16.6254 35.5728C16.1325 35.583 15.6482 35.4419 15.2379 35.1686C14.9365 34.9596 14.5763 34.8524 14.2098 34.8623V34.1518C14.7029 34.1416 15.1873 34.2827 15.5977 34.5561C15.8989 34.7651 16.259 34.8724 16.6254 34.8623C16.9921 34.8724 17.3523 34.765 17.6535 34.5558C18.0631 34.2825 18.5467 34.1415 19.039 34.1518C19.5193 34.1411 19.9917 34.2757 20.3942 34.538L20.0358 35.1511C19.7418 34.9533 19.3932 34.8523 19.039 34.8623C18.6739 34.8525 18.3152 34.9595 18.0151 35.1678C17.6043 35.442 17.1192 35.5834 16.6254 35.5728Z" fill="white"/>
<path d="M35.9482 33.0858C35.4548 33.0959 34.9701 32.9548 34.5592 32.6816C34.2534 32.4817 33.8959 32.3753 33.5306 32.3753C33.1653 32.3753 32.8078 32.4817 32.502 32.6816C32.0873 32.9455 31.606 33.0857 31.1144 33.0857C30.6229 33.0857 30.1415 32.9455 29.7268 32.6816C29.4214 32.4818 29.0644 32.3755 28.6995 32.3755C28.3345 32.3755 27.9775 32.4818 27.6721 32.6816C27.2575 32.9456 26.7761 33.0858 26.2845 33.0858C25.7929 33.0858 25.3116 32.9456 24.8969 32.6816C24.5915 32.4818 24.2345 32.3755 23.8696 32.3755C23.5046 32.3755 23.1476 32.4818 22.8422 32.6816C22.4319 32.955 21.9476 33.0961 21.4546 33.0858C20.9616 33.0961 20.4774 32.955 20.067 32.6816C19.766 32.4726 19.406 32.3653 19.0397 32.3753C18.6735 32.3654 18.3136 32.4727 18.0127 32.6816C17.603 32.9547 17.1195 33.0957 16.6272 33.0858C16.1341 33.0961 15.6497 32.955 15.2393 32.6816C14.9376 32.4722 14.5768 32.3649 14.2098 32.3753V31.6649C14.7027 31.6547 15.187 31.7957 15.5974 32.0691C15.8987 32.278 16.2589 32.3853 16.6254 32.3753C16.9917 32.3853 17.3515 32.278 17.6524 32.0691C18.0621 31.796 18.5456 31.6549 19.0379 31.6649C19.5312 31.6544 20.0159 31.7955 20.4265 32.0691C20.7277 32.2781 21.0878 32.3854 21.4543 32.3753C21.8207 32.3854 22.1808 32.2781 22.482 32.0691C22.8966 31.805 23.378 31.6648 23.8696 31.6648C24.3611 31.6648 24.8425 31.805 25.2571 32.0691C25.5626 32.2689 25.9197 32.3753 26.2847 32.3753C26.6497 32.3753 27.0068 32.2689 27.3122 32.0691C27.7269 31.805 28.2082 31.6648 28.6998 31.6648C29.1914 31.6648 29.6728 31.805 30.0874 32.0691C30.3929 32.2689 30.7499 32.3753 31.1149 32.3753C31.4799 32.3753 31.837 32.2689 32.1425 32.0691C32.5575 31.8051 33.0392 31.6649 33.5311 31.6649C34.023 31.6649 34.5047 31.8051 34.9198 32.0691C35.2258 32.2688 35.5833 32.3752 35.9487 32.3752C36.3142 32.3752 36.6717 32.2688 36.9777 32.0691C37.3885 31.7959 37.8731 31.6549 38.3664 31.6649V32.3753C37.9991 32.365 37.6381 32.4722 37.3361 32.6816C36.9255 32.9546 36.4412 33.0957 35.9482 33.0858Z" fill="white"/>
<path d="M35.9471 30.5995C35.454 30.6096 34.9697 30.4685 34.5592 30.1952C34.2578 29.9863 33.8976 29.879 33.5311 29.889C33.2621 29.8798 32.995 29.9371 32.7534 30.056L32.4401 29.4165C32.7793 29.2503 33.1535 29.1683 33.5311 29.1774C34.0247 29.1674 34.5096 29.3089 34.9204 29.5828C35.2267 29.783 35.5847 29.8896 35.9506 29.8896C36.3166 29.8896 36.6746 29.783 36.9809 29.5828C37.3907 29.3101 37.8741 29.1691 38.3663 29.1785V29.889C37.9998 29.879 37.6396 29.9861 37.3382 30.1949C36.9267 30.4685 36.4412 30.6097 35.9471 30.5995Z" fill="white"/>
<path d="M31.1123 30.5994C30.62 30.6097 30.1364 30.4687 29.7268 30.1954C29.4213 29.9956 29.0641 29.8891 28.6989 29.8891C28.3338 29.8891 27.9766 29.9956 27.671 30.1954C27.2563 30.4595 26.7749 30.5997 26.2833 30.5997C25.7916 30.5997 25.3102 30.4595 24.8955 30.1954C24.59 29.9957 24.2328 29.8893 23.8678 29.8893C23.5027 29.8893 23.1456 29.9957 22.8401 30.1954C22.4298 30.4684 21.9459 30.6093 21.4532 30.5994C20.9602 30.6095 20.476 30.4685 20.0656 30.1951C19.7643 29.9862 19.4041 29.8789 19.0375 29.8889C18.6724 29.879 18.3137 29.9861 18.0137 30.1944C17.6033 30.4682 17.1187 30.6096 16.6254 30.5994C16.1325 30.6095 15.6482 30.4685 15.2379 30.1951C14.9365 29.9862 14.5763 29.8789 14.2098 29.8889V29.1784C14.7029 29.1681 15.1873 29.3092 15.5977 29.5827C15.8989 29.7916 16.259 29.8989 16.6254 29.8889C16.9921 29.8989 17.3523 29.7915 17.6535 29.5823C18.0631 29.309 18.5467 29.168 19.039 29.1784C19.5319 29.1682 20.0162 29.3093 20.4265 29.5827C20.7277 29.7916 21.0878 29.8989 21.4543 29.8889C21.8208 29.8988 22.181 29.7916 22.4823 29.5827C22.897 29.3186 23.3785 29.1784 23.8701 29.1784C24.3617 29.1784 24.8431 29.3186 25.2579 29.5827C25.5634 29.7824 25.9205 29.8888 26.2856 29.8888C26.6506 29.8888 27.0078 29.7824 27.3133 29.5827C27.7281 29.3184 28.2096 29.1781 28.7014 29.1781C29.1932 29.1781 29.6748 29.3184 30.0895 29.5827C30.4025 29.7932 30.7736 29.9001 31.1506 29.8885C31.1781 29.8889 31.2055 29.8874 31.2327 29.8843L31.3272 30.5883C31.2559 30.5967 31.1841 30.6003 31.1123 30.5994Z" fill="white"/>
<path d="M35.9482 28.1124C35.4548 28.1225 34.9701 27.9814 34.5592 27.7082C34.2534 27.5083 33.8959 27.4019 33.5306 27.4019C33.1653 27.4019 32.8078 27.5083 32.502 27.7082C32.0873 27.9721 31.606 28.1123 31.1144 28.1123C30.6229 28.1123 30.1415 27.9721 29.7268 27.7082C29.4214 27.5084 29.0644 27.4021 28.6995 27.4021C28.3345 27.4021 27.9775 27.5084 27.6721 27.7082C27.2575 27.9722 26.7761 28.1125 26.2845 28.1125C25.7929 28.1125 25.3116 27.9722 24.8969 27.7082C24.5915 27.5084 24.2345 27.4021 23.8696 27.4021C23.5046 27.4021 23.1476 27.5084 22.8422 27.7082C22.4319 27.9816 21.9476 28.1227 21.4546 28.1124C20.9616 28.1227 20.4774 27.9816 20.067 27.7082C19.766 27.4992 19.406 27.392 19.0397 27.4019C18.6735 27.392 18.3136 27.4993 18.0127 27.7082C17.603 27.9813 17.1195 28.1223 16.6272 28.1124C16.1341 28.1227 15.6497 27.9816 15.2393 27.7082C14.9376 27.4988 14.5768 27.3915 14.2098 27.4019V26.6915C14.7027 26.6813 15.187 26.8224 15.5974 27.0957C15.8987 27.3046 16.2589 27.4119 16.6254 27.4019C16.9917 27.4119 17.3515 27.3046 17.6524 27.0957C18.0621 26.8226 18.5456 26.6815 19.0379 26.6915C19.5312 26.681 20.0159 26.8221 20.4265 27.0957C20.7277 27.3047 21.0878 27.412 21.4543 27.4019C21.8207 27.412 22.1808 27.3047 22.482 27.0957C22.8966 26.8317 23.378 26.6914 23.8696 26.6914C24.3611 26.6914 24.8425 26.8317 25.2571 27.0957C25.5626 27.2955 25.9197 27.4019 26.2847 27.4019C26.6497 27.4019 27.0068 27.2955 27.3122 27.0957C27.7269 26.8317 28.2082 26.6914 28.6998 26.6914C29.1914 26.6914 29.6728 26.8317 30.0874 27.0957C30.3929 27.2955 30.7499 27.4019 31.1149 27.4019C31.4799 27.4019 31.837 27.2955 32.1425 27.0957C32.5575 26.8318 33.0392 26.6916 33.5311 26.6916C34.023 26.6916 34.5047 26.8318 34.9198 27.0957C35.2258 27.2954 35.5833 27.4018 35.9487 27.4018C36.3142 27.4018 36.6717 27.2954 36.9777 27.0957C37.3885 26.8225 37.8731 26.6815 38.3664 26.6915V27.4019C37.9991 27.3916 37.6381 27.4989 37.3361 27.7082C36.9255 27.9812 36.4412 28.1223 35.9482 28.1124Z" fill="white"/>
<path d="M30.886 27.8112L30.2156 27.576C30.3883 27.08 30.4588 26.5542 30.423 26.0302C30.3872 25.5062 30.2457 24.9949 30.0071 24.527L27.5669 19.7486C27.5429 19.7014 27.5296 19.6494 27.5282 19.5965C27.5268 19.5435 27.5373 19.4909 27.5588 19.4425C27.5804 19.3941 27.6125 19.3511 27.6528 19.3167C27.6931 19.2824 27.7406 19.2574 27.7918 19.2438L32.6547 17.9471C32.8132 17.9057 32.9489 17.8034 33.0323 17.6624C33.1157 17.5214 33.1401 17.3532 33.1001 17.1943C33.0601 17.0355 32.959 16.8989 32.8188 16.8142C32.6786 16.7295 32.5106 16.7036 32.3514 16.7422L26.4657 18.1489C26.3399 18.1787 26.2226 18.237 26.1229 18.3193C26.0232 18.4016 25.9439 18.5058 25.8909 18.6238C25.838 18.7417 25.8129 18.8703 25.8177 18.9995C25.8224 19.1287 25.8568 19.2551 25.9183 19.3688L27.6661 22.6158C27.7104 22.6983 27.7203 22.795 27.6937 22.8848C27.6671 22.9746 27.6061 23.0503 27.524 23.0953L25.2682 24.3387L24.9254 23.7163L26.8728 22.6428L25.2934 19.7056C25.1804 19.4959 25.1171 19.2631 25.1085 19.025C25.0999 18.787 25.1461 18.5502 25.2437 18.3329C25.3412 18.1156 25.4874 17.9236 25.671 17.7719C25.8545 17.6201 26.0705 17.5126 26.3023 17.4576L32.1851 16.0512C32.5276 15.9647 32.8904 16.0177 33.1938 16.1987C33.4971 16.3797 33.7162 16.6738 33.8027 17.0162C33.8893 17.3587 33.8362 17.7215 33.6552 18.0249C33.4742 18.3283 33.1802 18.5473 32.8377 18.6338L28.3993 19.8168L30.6402 24.2033C30.9223 24.757 31.0896 25.3621 31.1318 25.9821C31.1741 26.6022 31.0904 27.2243 30.886 27.8112Z" fill="white"/>
<path d="M23.6836 24.4062L19.3666 26.785L19.7093 27.407L24.0263 25.0282L23.6836 24.4062Z" fill="white"/>
<path d="M34.1034 25.448C33.5765 25.448 33.0613 25.2918 32.6232 24.999C32.185 24.7063 31.8436 24.2901 31.6419 23.8033C31.4402 23.3165 31.3875 22.7808 31.4903 22.2639C31.5931 21.7471 31.8468 21.2724 32.2194 20.8997C32.5921 20.5271 33.0668 20.2734 33.5836 20.1706C34.1005 20.0678 34.6362 20.1205 35.123 20.3222C35.6098 20.5239 36.026 20.8653 36.3187 21.3035C36.6115 21.7416 36.7677 22.2568 36.7677 22.7837C36.767 23.4901 36.486 24.1673 35.9865 24.6668C35.4871 25.1663 34.8098 25.4473 34.1034 25.448ZM34.1034 20.8299C33.717 20.8299 33.3392 20.9445 33.0179 21.1592C32.6966 21.3738 32.4462 21.679 32.2983 22.036C32.1504 22.393 32.1117 22.7859 32.1871 23.1649C32.2625 23.5439 32.4486 23.892 32.7218 24.1653C32.9951 24.4385 33.3432 24.6246 33.7222 24.7C34.1012 24.7754 34.4941 24.7367 34.8511 24.5888C35.2081 24.4409 35.5133 24.1905 35.728 23.8692C35.9427 23.5479 36.0573 23.1701 36.0573 22.7837C36.0566 22.2657 35.8505 21.7691 35.4843 21.4029C35.118 21.0366 34.6214 20.8305 34.1034 20.8299Z" fill="white"/>
</svg>
