<svg width="24" height="24" viewBox="0 0 24 24" fill="none" xmlns="http://www.w3.org/2000/svg">
<path d="M13.2986 0.477609C12.5493 0.0865086 11.52 0.0806346 10.7654 0.470346C7.54211 2.13502 4.62125 4.04231 2.0638 6.15556C1.72276 6.43737 1.49708 6.83178 1.50094 7.28259C1.50479 7.73187 1.7356 8.12189 2.07551 8.39982C4.61239 10.4741 7.53653 12.3837 10.7012 14.0354C11.4506 14.4265 12.4799 14.4323 13.2345 14.0426C16.4578 12.378 19.3786 10.4707 21.9361 8.35742C22.2771 8.07561 22.5028 7.6812 22.4989 7.23039C22.4951 6.78111 22.2643 6.39109 21.9244 6.11316C19.3875 4.03886 16.4634 2.12933 13.2986 0.477609Z" fill="white"/>
<path d="M23.1975 13.1645C23.6367 12.8903 23.7704 12.312 23.4962 11.8728C23.222 11.4336 22.6437 11.2998 22.2045 11.574L14.5705 16.3401C13.8904 16.7647 12.9665 17.0014 11.9997 17.0015C11.0329 17.0015 10.1089 16.7649 9.42873 16.3404L1.87832 11.6282C1.43908 11.3541 0.860771 11.4879 0.586641 11.9272C0.31251 12.3664 0.446361 12.9447 0.885605 13.2189L8.43602 17.9311C9.47209 18.5777 10.7574 18.8765 11.9998 18.8765C13.2422 18.8764 14.5275 18.5774 15.5634 17.9306L23.1975 13.1645Z" fill="white"/>
<path d="M23.1976 17.8578C23.6367 17.5836 23.7704 17.0053 23.4962 16.5661C23.2219 16.1269 22.6436 15.9932 22.2044 16.2675L15.5933 20.3961C14.6272 20.9994 13.3349 21.3255 11.9997 21.3256C10.6644 21.3256 9.37202 20.9997 8.40574 20.3965L1.87841 16.3217C1.4392 16.0475 0.860884 16.1813 0.5867 16.6205C0.312517 17.0597 0.446298 17.638 0.885509 17.9122L7.41284 21.987C8.73507 22.8124 10.3889 23.2006 11.9998 23.2006C13.6107 23.2005 15.2644 22.812 16.5864 21.9864L23.1976 17.8578Z" fill="white"/>
</svg>
