<svg width="17" height="17" viewBox="0 0 17 17" fill="none" xmlns="http://www.w3.org/2000/svg">
<path d="M17 1.90662C16.3678 2.22996 15.6942 2.44428 14.9919 2.54835C15.7144 2.04537 16.2658 1.25497 16.5251 0.302283C15.8514 0.770575 15.1077 1.10135 14.3151 1.28594C13.6754 0.49183 12.7638 0 11.7693 0C9.83981 0 8.28644 1.82609 8.28644 4.06472C8.28644 4.38683 8.30981 4.69654 8.36719 4.99139C5.46975 4.82662 2.90594 3.20743 1.18362 0.740842C0.882937 1.34913 0.706563 2.04537 0.706563 2.79488C0.706563 4.20223 1.32812 5.44977 2.25463 6.17203C1.69469 6.15964 1.14538 5.9701 0.68 5.67153C0.68 5.68392 0.68 5.70002 0.68 5.71613C0.68 7.69088 1.88806 9.33114 3.47225 9.70899C3.18856 9.79943 2.87937 9.84279 2.5585 9.84279C2.33538 9.84279 2.11012 9.82793 1.89869 9.77342C2.35025 11.3827 3.63163 12.5658 5.15525 12.6042C3.9695 13.6858 2.46394 14.3374 0.834063 14.3374C0.54825 14.3374 0.274125 14.3225 0 14.2817C1.54381 15.4425 3.37344 16.1053 5.3465 16.1053C11.7597 16.1053 15.266 9.91093 15.266 4.54168C15.266 4.36205 15.2607 4.18861 15.2533 4.0164C15.9449 3.44405 16.5261 2.72922 17 1.90662Z" fill="#080809"/>
</svg>
