<svg width="52" height="54" viewBox="0 0 52 54" fill="none" xmlns="http://www.w3.org/2000/svg">
<rect y="0.922974" width="51.4807" height="52.5761" rx="13" fill="#F0BB1F"/>
<path d="M14.8359 20.0646C14.5111 20.0646 14.2453 19.7989 14.2394 19.474V15.759C14.2394 15.4283 14.5051 15.1625 14.8359 15.1625H18.5509C18.8757 15.1625 19.1415 15.4283 19.1415 15.759V17.0525H33.4346V15.759C33.4346 15.4342 33.7004 15.1684 34.0252 15.1625H37.7402C38.065 15.1625 38.3308 15.4283 38.3367 15.759V19.474C38.3367 19.7989 38.071 20.0646 37.7402 20.0646H36.4467V34.3577H37.7402C38.065 34.3577 38.3308 34.6235 38.3367 34.9483V38.6633C38.3367 38.9882 38.071 39.2539 37.7402 39.2598H34.0252C33.7004 39.2598 33.4346 38.9941 33.4346 38.6633V37.3699H19.1415V38.6633C19.1415 38.9882 18.8757 39.2539 18.5509 39.2598H14.8359C14.5111 39.2598 14.2453 38.9941 14.2394 38.6633V34.9483C14.2394 34.6235 14.5051 34.3577 14.8359 34.3577H16.1294V20.0646H14.8359ZM37.1555 18.8834V16.3437H34.6158V18.8834H37.1555ZM34.6158 38.0786H37.1555V35.5389H34.6158V38.0786ZM19.1415 34.9483V36.1886H33.4346V34.9483C33.4346 34.6235 33.7004 34.3577 34.0252 34.3577H35.2655V20.0646H34.0252C33.7004 20.0646 33.4346 19.7989 33.4346 19.474V18.2337H19.1415V19.474C19.1415 19.7989 18.8757 20.0646 18.5509 20.0646H17.3106V34.3577H18.5509C18.8757 34.3577 19.1415 34.6235 19.1415 34.9483ZM15.4206 35.5389V38.0786H17.9603V35.5389H15.4206ZM17.9603 18.8834V16.3437H15.4206V18.8834H17.9603Z" fill="white"/>
</svg>
