<svg width="37" height="29" viewBox="0 0 37 29" fill="none" xmlns="http://www.w3.org/2000/svg">
<g clip-path="url(#clip0_1_78)">
<path d="M31.3221 2.53483C28.9638 1.46033 26.4349 0.668689 23.7908 0.215281C23.7427 0.20653 23.6946 0.228399 23.6698 0.272136C23.3445 0.846547 22.9843 1.59591 22.732 2.18491C19.8881 1.76213 17.0588 1.76213 14.2732 2.18491C14.0209 1.58282 13.6476 0.846547 13.3209 0.272136C13.2961 0.229858 13.248 0.20799 13.1998 0.215281C10.5572 0.66724 8.02832 1.45888 5.66861 2.53483C5.64818 2.54358 5.63067 2.55817 5.61905 2.57711C0.822312 9.69322 -0.491715 16.6344 0.152903 23.4896C0.155819 23.5231 0.174779 23.5552 0.20103 23.5756C3.36578 25.8834 6.43138 27.2845 9.44005 28.2132C9.48821 28.2278 9.53923 28.2103 9.56987 28.1709C10.2816 27.2058 10.916 26.1882 11.4599 25.118C11.492 25.0554 11.4614 24.981 11.3958 24.9562C10.3895 24.5772 9.4313 24.115 8.50958 23.5902C8.43668 23.5479 8.43084 23.4443 8.49791 23.3948C8.69187 23.2504 8.88589 23.1003 9.0711 22.9486C9.10461 22.921 9.1513 22.9151 9.1907 22.9326C15.246 25.6779 21.8015 25.6779 27.7854 22.9326C27.8248 22.9137 27.8715 22.9195 27.9064 22.9472C28.0917 23.0988 28.2857 23.2504 28.4811 23.3948C28.5482 23.4443 28.5438 23.5479 28.4709 23.5902C27.5492 24.1252 26.591 24.5772 25.5832 24.9548C25.5176 24.9796 25.4884 25.0554 25.5205 25.118C26.0761 26.1867 26.7106 27.2043 27.4091 28.1695C27.4383 28.2103 27.4908 28.2278 27.5389 28.2132C30.5622 27.2845 33.6278 25.8834 36.7925 23.5756C36.8203 23.5552 36.8378 23.5245 36.8407 23.491C37.6122 15.5657 35.5485 8.68144 31.3702 2.57856C31.3599 2.55817 31.3425 2.54358 31.3221 2.53483ZM12.3642 19.3155C10.5411 19.3155 9.039 17.6535 9.039 15.6124C9.039 13.5713 10.512 11.9093 12.3642 11.9093C14.2309 11.9093 15.7185 13.5859 15.6894 15.6124C15.6894 17.6535 14.2163 19.3155 12.3642 19.3155ZM24.6586 19.3155C22.8356 19.3155 21.3334 17.6535 21.3334 15.6124C21.3334 13.5713 22.8064 11.9093 24.6586 11.9093C26.5254 11.9093 28.0129 13.5859 27.9838 15.6124C27.9838 17.6535 26.5254 19.3155 24.6586 19.3155Z" fill="black"/>
</g>
<defs>
<clipPath id="clip0_1_78">
<rect width="37" height="28.4615" fill="white"/>
</clipPath>
</defs>
</svg>
