<svg width="37" height="37" viewBox="0 0 37 37" fill="none" xmlns="http://www.w3.org/2000/svg">
<path d="M18.5 13.4895C15.7328 13.4895 13.4896 15.7327 13.4896 18.4999C13.4896 21.2671 15.7328 23.5103 18.5 23.5103C21.2672 23.5103 23.5104 21.2671 23.5104 18.4999C23.5104 15.7327 21.2672 13.4895 18.5 13.4895Z" fill="black"/>
<path fill-rule="evenodd" clip-rule="evenodd" d="M10.4363 4.75053C15.7522 4.1564 21.2478 4.1564 26.5636 4.75053C29.4903 5.07763 31.8509 7.38362 32.1944 10.3206C32.83 15.755 32.83 21.2449 32.1944 26.6793C31.8509 29.6162 29.4903 31.9222 26.5636 32.2493C21.2478 32.8434 15.7522 32.8434 10.4363 32.2493C7.50965 31.9222 5.14906 29.6162 4.80556 26.6793C4.16996 21.2449 4.16996 15.755 4.80556 10.3206C5.14906 7.38362 7.50965 5.07763 10.4363 4.75053ZM26.2083 9.24993C25.3569 9.24993 24.6666 9.94016 24.6666 10.7916C24.6666 11.643 25.3569 12.3333 26.2083 12.3333C27.0597 12.3333 27.75 11.643 27.75 10.7916C27.75 9.94016 27.0597 9.24993 26.2083 9.24993ZM11.1771 18.4999C11.1771 14.4556 14.4556 11.177 18.5 11.177C22.5443 11.177 25.8229 14.4556 25.8229 18.4999C25.8229 22.5443 22.5443 25.8228 18.5 25.8228C14.4556 25.8228 11.1771 22.5443 11.1771 18.4999Z" fill="black"/>
</svg>
