<svg width="37" height="31" viewBox="0 0 37 31" fill="none" xmlns="http://www.w3.org/2000/svg">
<path d="M36.9642 4.16831C37.0741 4.01715 36.9118 3.82197 36.7359 3.88921C35.4864 4.36706 34.1805 4.68947 32.8484 4.84835C34.3316 3.97412 35.4762 2.64333 36.1108 1.06776C36.1755 0.907262 35.9978 0.76393 35.8446 0.847425C34.4661 1.59854 32.9794 2.1394 31.435 2.45089C31.3704 2.46393 31.3037 2.44221 31.2583 2.39496C30.0994 1.18844 28.5738 0.385123 26.9107 0.107522C25.2127 -0.17591 23.4673 0.104728 21.9483 0.905421C20.4294 1.70611 19.2228 2.98157 18.5177 4.53176C17.8473 6.00569 17.6664 7.64872 17.9971 9.22664C18.0227 9.34907 17.9256 9.46466 17.7991 9.45691C14.7943 9.27279 11.8584 8.48426 9.1724 7.13883C6.49318 5.79682 4.12066 3.92986 2.19933 1.6531C2.11406 1.55206 1.95244 1.56514 1.89032 1.68146C1.29247 2.80075 0.979446 4.04829 0.980296 5.31623C0.977869 6.57835 1.2918 7.82148 1.89414 8.93493C2.49648 10.0484 3.36854 10.9976 4.43267 11.6981C3.30415 11.6678 2.19764 11.3926 1.19132 10.8935C1.06164 10.8292 0.906078 10.9207 0.912823 11.0638C0.991295 12.728 1.61055 14.3988 2.68242 15.6806C3.82307 17.0447 5.40627 17.9782 7.16423 18.3233C6.48751 18.5265 5.78493 18.6336 5.07762 18.6414C4.69266 18.637 4.30845 18.609 3.92721 18.5575C3.78586 18.5385 3.67043 18.671 3.71992 18.803C4.24426 20.2019 5.17057 21.4226 6.38853 22.3136C7.69067 23.2663 9.2614 23.7948 10.8822 23.8255C8.14531 25.9502 4.76631 27.1098 1.2838 27.1194C0.925962 27.1206 0.568282 27.1091 0.211443 27.0851C0.0103555 27.0716 -0.0821281 27.3359 0.0912029 27.4374C3.48434 29.4241 7.36262 30.4742 11.3185 30.4694C14.2391 30.4993 17.1365 29.9548 19.8415 28.8676C22.5465 27.7803 25.0047 26.1722 27.0727 24.1371C29.1407 22.1021 30.7769 19.6809 31.8858 17.0149C32.9947 14.349 33.5541 11.4917 33.5313 8.6101V7.71209C33.5313 7.65301 33.5596 7.59744 33.6074 7.56184C34.8941 6.60335 36.0255 5.45904 36.9642 4.16831Z" fill="black"/>
</svg>
